<svg width="33" height="26" viewBox="0 0 33 26" fill="none" xmlns="http://www.w3.org/2000/svg">
<path d="M31.0202 4.44047L14.9038 0.907532C14.4753 0.821388 14.0302 0.906964 13.6643 1.14583C13.2983 1.3847 13.0408 1.75774 12.9472 2.18462C12.8537 2.61149 12.9315 3.05804 13.164 3.42809C13.3964 3.79814 13.7649 4.06208 14.1901 4.16306L26.3765 6.83446L1.69402 22.6412C1.32178 22.8796 1.05948 23.256 0.96483 23.6878C0.870179 24.1196 0.950927 24.5713 1.18931 24.9435C1.42769 25.3158 1.80418 25.5781 2.23596 25.6727C2.66773 25.7674 3.11942 25.6866 3.49166 25.4482L28.1741 9.64152L25.5027 21.8279C25.4516 22.0432 25.4438 22.2665 25.4799 22.4849C25.516 22.7032 25.5953 22.9122 25.713 23.0996C25.8307 23.287 25.9846 23.4491 26.1656 23.5763C26.3467 23.7036 26.5512 23.7936 26.7674 23.841C26.9836 23.8884 27.207 23.8923 27.4247 23.8524C27.6424 23.8125 27.8499 23.7296 28.0353 23.6087C28.2206 23.4877 28.38 23.331 28.5041 23.1478C28.6282 22.9646 28.7146 22.7585 28.7582 22.5415L32.2912 6.42506C32.3857 5.99335 32.305 5.54176 32.0666 5.1696C31.8283 4.79743 31.4519 4.53517 31.0202 4.44047Z" fill="white"/>
</svg>
